<mxfile host="app.diagrams.net" modified="2022-12-26T15:02:21.919Z" agent="5.0 (Windows NT 10.0; Win64; x64) AppleWebKit/537.36 (KHTML, like Gecko) Chrome/106.0.0.0 YaBrowser/22.11.3.818 Yowser/2.5 Safari/537.36" etag="84MdUGCADXa-0APHiFDt" version="20.7.4" type="github">
  <diagram id="eSXdMw4WFxAL7-gYITn4" name="Страница 1">
    <mxGraphModel dx="1614" dy="754" grid="1" gridSize="10" guides="1" tooltips="1" connect="1" arrows="1" fold="1" page="1" pageScale="1" pageWidth="827" pageHeight="1169" math="0" shadow="0">
      <root>
        <mxCell id="0" />
        <mxCell id="1" parent="0" />
        <mxCell id="CThTGi6md4LhZxkkEZVT-1" value="" style="rounded=0;whiteSpace=wrap;html=1;" parent="1" vertex="1">
          <mxGeometry x="205" y="40" width="910" height="900" as="geometry" />
        </mxCell>
        <mxCell id="CThTGi6md4LhZxkkEZVT-2" style="edgeStyle=orthogonalEdgeStyle;rounded=0;orthogonalLoop=1;jettySize=auto;html=1;entryX=0;entryY=0.5;entryDx=0;entryDy=0;" parent="1" source="CThTGi6md4LhZxkkEZVT-3" target="CThTGi6md4LhZxkkEZVT-7" edge="1">
          <mxGeometry relative="1" as="geometry" />
        </mxCell>
        <mxCell id="CThTGi6md4LhZxkkEZVT-3" value="Пациент" style="shape=umlActor;verticalLabelPosition=bottom;verticalAlign=top;html=1;outlineConnect=0;" parent="1" vertex="1">
          <mxGeometry x="110" y="170" width="60" height="100" as="geometry" />
        </mxCell>
        <mxCell id="CThTGi6md4LhZxkkEZVT-4" style="edgeStyle=orthogonalEdgeStyle;rounded=0;orthogonalLoop=1;jettySize=auto;html=1;" parent="1" source="CThTGi6md4LhZxkkEZVT-6" target="CThTGi6md4LhZxkkEZVT-13" edge="1">
          <mxGeometry relative="1" as="geometry" />
        </mxCell>
        <mxCell id="CThTGi6md4LhZxkkEZVT-5" style="edgeStyle=orthogonalEdgeStyle;rounded=0;orthogonalLoop=1;jettySize=auto;html=1;entryX=0.5;entryY=0;entryDx=0;entryDy=0;entryPerimeter=0;" parent="1" target="CThTGi6md4LhZxkkEZVT-28" edge="1">
          <mxGeometry relative="1" as="geometry">
            <mxPoint x="1180" y="560" as="sourcePoint" />
          </mxGeometry>
        </mxCell>
        <mxCell id="CThTGi6md4LhZxkkEZVT-6" value="Врач" style="shape=umlActor;verticalLabelPosition=bottom;verticalAlign=top;html=1;outlineConnect=0;" parent="1" vertex="1">
          <mxGeometry x="1150" y="430" width="60" height="100" as="geometry" />
        </mxCell>
        <mxCell id="CThTGi6md4LhZxkkEZVT-7" value="регистрация пациента" style="ellipse;whiteSpace=wrap;html=1;" parent="1" vertex="1">
          <mxGeometry x="300" y="185" width="140" height="70" as="geometry" />
        </mxCell>
        <mxCell id="CThTGi6md4LhZxkkEZVT-8" style="edgeStyle=orthogonalEdgeStyle;rounded=0;orthogonalLoop=1;jettySize=auto;html=1;entryX=0.5;entryY=0;entryDx=0;entryDy=0;entryPerimeter=0;" parent="1" target="CThTGi6md4LhZxkkEZVT-6" edge="1">
          <mxGeometry relative="1" as="geometry">
            <mxPoint x="1180" y="420" as="targetPoint" />
            <mxPoint x="1180" y="310" as="sourcePoint" />
          </mxGeometry>
        </mxCell>
        <mxCell id="CThTGi6md4LhZxkkEZVT-9" style="edgeStyle=orthogonalEdgeStyle;rounded=0;orthogonalLoop=1;jettySize=auto;html=1;" parent="1" target="CThTGi6md4LhZxkkEZVT-19" edge="1">
          <mxGeometry relative="1" as="geometry">
            <mxPoint x="1150" y="220" as="sourcePoint" />
          </mxGeometry>
        </mxCell>
        <mxCell id="CThTGi6md4LhZxkkEZVT-10" value="Работник&amp;nbsp;&lt;br&gt;регистратуры&amp;nbsp;" style="shape=umlActor;verticalLabelPosition=bottom;verticalAlign=top;html=1;outlineConnect=0;" parent="1" vertex="1">
          <mxGeometry x="1150" y="170" width="60" height="100" as="geometry" />
        </mxCell>
        <mxCell id="CThTGi6md4LhZxkkEZVT-11" value="направление на сдачу анализов" style="ellipse;whiteSpace=wrap;html=1;" parent="1" vertex="1">
          <mxGeometry x="770" y="700" width="140" height="70" as="geometry" />
        </mxCell>
        <mxCell id="CThTGi6md4LhZxkkEZVT-12" value="сдача анализов" style="ellipse;whiteSpace=wrap;html=1;" parent="1" vertex="1">
          <mxGeometry x="890" y="810" width="140" height="70" as="geometry" />
        </mxCell>
        <mxCell id="CThTGi6md4LhZxkkEZVT-13" value="больничный лист" style="ellipse;whiteSpace=wrap;html=1;" parent="1" vertex="1">
          <mxGeometry x="860" y="445" width="140" height="70" as="geometry" />
        </mxCell>
        <mxCell id="CThTGi6md4LhZxkkEZVT-14" value="изменение истории болезни&amp;nbsp;" style="ellipse;whiteSpace=wrap;html=1;" parent="1" vertex="1">
          <mxGeometry x="460" y="585" width="140" height="70" as="geometry" />
        </mxCell>
        <mxCell id="CThTGi6md4LhZxkkEZVT-15" value="история болезни" style="ellipse;whiteSpace=wrap;html=1;" parent="1" vertex="1">
          <mxGeometry x="580" y="450" width="140" height="70" as="geometry" />
        </mxCell>
        <mxCell id="CThTGi6md4LhZxkkEZVT-16" value="оформление справок" style="ellipse;whiteSpace=wrap;html=1;" parent="1" vertex="1">
          <mxGeometry x="500" y="290" width="140" height="70" as="geometry" />
        </mxCell>
        <mxCell id="CThTGi6md4LhZxkkEZVT-17" value="назначение лечения" style="ellipse;whiteSpace=wrap;html=1;" parent="1" vertex="1">
          <mxGeometry x="680" y="585" width="140" height="70" as="geometry" />
        </mxCell>
        <mxCell id="CThTGi6md4LhZxkkEZVT-18" value="выписка рецепта&lt;br&gt;лекарств" style="ellipse;whiteSpace=wrap;html=1;" parent="1" vertex="1">
          <mxGeometry x="590" y="710" width="140" height="70" as="geometry" />
        </mxCell>
        <mxCell id="CThTGi6md4LhZxkkEZVT-19" value="запись на приём" style="ellipse;whiteSpace=wrap;html=1;" parent="1" vertex="1">
          <mxGeometry x="827" y="185" width="140" height="70" as="geometry" />
        </mxCell>
        <mxCell id="CThTGi6md4LhZxkkEZVT-20" value="&amp;lt;&amp;lt;include&amp;gt;&amp;gt;" style="html=1;verticalAlign=bottom;labelBackgroundColor=none;endArrow=open;endFill=0;dashed=1;rounded=0;exitX=0.25;exitY=0.061;exitDx=0;exitDy=0;exitPerimeter=0;entryX=1;entryY=0.5;entryDx=0;entryDy=0;" parent="1" target="CThTGi6md4LhZxkkEZVT-15" edge="1">
          <mxGeometry width="160" relative="1" as="geometry">
            <mxPoint x="860" y="483.03999999999996" as="sourcePoint" />
            <mxPoint x="806.6020293077663" y="430.0002407276752" as="targetPoint" />
          </mxGeometry>
        </mxCell>
        <mxCell id="CThTGi6md4LhZxkkEZVT-21" value="&amp;lt;&amp;lt;include&amp;gt;&amp;gt;" style="html=1;verticalAlign=bottom;labelBackgroundColor=none;endArrow=open;endFill=0;dashed=1;rounded=0;exitX=0.25;exitY=0.061;exitDx=0;exitDy=0;exitPerimeter=0;entryX=0.5;entryY=0;entryDx=0;entryDy=0;" parent="1" target="CThTGi6md4LhZxkkEZVT-17" edge="1">
          <mxGeometry width="160" relative="1" as="geometry">
            <mxPoint x="920" y="515" as="sourcePoint" />
            <mxPoint x="850" y="516.96" as="targetPoint" />
          </mxGeometry>
        </mxCell>
        <mxCell id="CThTGi6md4LhZxkkEZVT-22" value="&amp;lt;&amp;lt;extend&amp;gt;&amp;gt;" style="html=1;verticalAlign=bottom;labelBackgroundColor=none;endArrow=open;endFill=0;dashed=1;rounded=0;entryX=0;entryY=0.5;entryDx=0;entryDy=0;" parent="1" target="CThTGi6md4LhZxkkEZVT-19" edge="1">
          <mxGeometry width="160" relative="1" as="geometry">
            <mxPoint x="440" y="219.5" as="sourcePoint" />
            <mxPoint x="600" y="219.5" as="targetPoint" />
          </mxGeometry>
        </mxCell>
        <mxCell id="CThTGi6md4LhZxkkEZVT-23" value="&amp;lt;&amp;lt;extend&amp;gt;&amp;gt;" style="html=1;verticalAlign=bottom;labelBackgroundColor=none;endArrow=open;endFill=0;dashed=1;rounded=0;entryX=0.5;entryY=0;entryDx=0;entryDy=0;exitX=0.5;exitY=1;exitDx=0;exitDy=0;" parent="1" source="CThTGi6md4LhZxkkEZVT-19" target="CThTGi6md4LhZxkkEZVT-13" edge="1">
          <mxGeometry x="0.7445" y="4" width="160" relative="1" as="geometry">
            <mxPoint x="940" y="255" as="sourcePoint" />
            <mxPoint x="1100" y="255" as="targetPoint" />
            <mxPoint as="offset" />
          </mxGeometry>
        </mxCell>
        <mxCell id="CThTGi6md4LhZxkkEZVT-24" value="&amp;lt;&amp;lt;include&amp;gt;&amp;gt;" style="html=1;verticalAlign=bottom;labelBackgroundColor=none;endArrow=open;endFill=0;dashed=1;rounded=0;entryX=0.5;entryY=0;entryDx=0;entryDy=0;exitX=0.257;exitY=0.968;exitDx=0;exitDy=0;exitPerimeter=0;" parent="1" source="CThTGi6md4LhZxkkEZVT-17" target="CThTGi6md4LhZxkkEZVT-18" edge="1">
          <mxGeometry width="160" relative="1" as="geometry">
            <mxPoint x="919.5" y="640" as="sourcePoint" />
            <mxPoint x="919.5" y="695" as="targetPoint" />
          </mxGeometry>
        </mxCell>
        <mxCell id="CThTGi6md4LhZxkkEZVT-25" value="&amp;lt;&amp;lt;include&amp;gt;&amp;gt;" style="html=1;verticalAlign=bottom;labelBackgroundColor=none;endArrow=open;endFill=0;dashed=1;rounded=0;exitX=0.443;exitY=1.046;exitDx=0;exitDy=0;exitPerimeter=0;entryX=1;entryY=0;entryDx=0;entryDy=0;" parent="1" source="CThTGi6md4LhZxkkEZVT-15" target="CThTGi6md4LhZxkkEZVT-14" edge="1">
          <mxGeometry width="160" relative="1" as="geometry">
            <mxPoint x="710" y="530" as="sourcePoint" />
            <mxPoint x="640" y="531.96" as="targetPoint" />
          </mxGeometry>
        </mxCell>
        <mxCell id="CThTGi6md4LhZxkkEZVT-26" value="&amp;lt;&amp;lt;include&amp;gt;&amp;gt;" style="html=1;verticalAlign=bottom;labelBackgroundColor=none;endArrow=open;endFill=0;dashed=1;rounded=0;exitX=0.257;exitY=0.968;exitDx=0;exitDy=0;exitPerimeter=0;" parent="1" target="CThTGi6md4LhZxkkEZVT-11" edge="1">
          <mxGeometry width="160" relative="1" as="geometry">
            <mxPoint x="805.98" y="640" as="sourcePoint" />
            <mxPoint x="750" y="697.24" as="targetPoint" />
          </mxGeometry>
        </mxCell>
        <mxCell id="CThTGi6md4LhZxkkEZVT-27" style="edgeStyle=orthogonalEdgeStyle;rounded=0;orthogonalLoop=1;jettySize=auto;html=1;entryX=0.971;entryY=0.332;entryDx=0;entryDy=0;entryPerimeter=0;" parent="1" target="CThTGi6md4LhZxkkEZVT-12" edge="1">
          <mxGeometry relative="1" as="geometry">
            <mxPoint x="1150" y="833" as="sourcePoint" />
          </mxGeometry>
        </mxCell>
        <mxCell id="CThTGi6md4LhZxkkEZVT-28" value="Лаборант" style="shape=umlActor;verticalLabelPosition=bottom;verticalAlign=top;html=1;outlineConnect=0;" parent="1" vertex="1">
          <mxGeometry x="1150" y="790" width="60" height="100" as="geometry" />
        </mxCell>
        <mxCell id="CThTGi6md4LhZxkkEZVT-29" value="&amp;lt;&amp;lt;extend&amp;gt;&amp;gt;" style="html=1;verticalAlign=bottom;labelBackgroundColor=none;endArrow=open;endFill=0;dashed=1;rounded=0;entryX=0.186;entryY=0.046;entryDx=0;entryDy=0;entryPerimeter=0;exitX=0.607;exitY=1.039;exitDx=0;exitDy=0;exitPerimeter=0;" parent="1" source="CThTGi6md4LhZxkkEZVT-11" target="CThTGi6md4LhZxkkEZVT-12" edge="1">
          <mxGeometry width="160" relative="1" as="geometry">
            <mxPoint x="900" y="779" as="sourcePoint" />
            <mxPoint x="1060" y="779" as="targetPoint" />
          </mxGeometry>
        </mxCell>
        <mxCell id="CThTGi6md4LhZxkkEZVT-30" value="повторное направление на приём" style="ellipse;whiteSpace=wrap;html=1;" parent="1" vertex="1">
          <mxGeometry x="960" y="330" width="140" height="70" as="geometry" />
        </mxCell>
        <mxCell id="CThTGi6md4LhZxkkEZVT-31" value="" style="endArrow=classic;html=1;rounded=0;entryX=0.636;entryY=0.975;entryDx=0;entryDy=0;entryPerimeter=0;" parent="1" target="CThTGi6md4LhZxkkEZVT-30" edge="1">
          <mxGeometry width="50" height="50" relative="1" as="geometry">
            <mxPoint x="1150" y="480" as="sourcePoint" />
            <mxPoint x="1200" y="430" as="targetPoint" />
          </mxGeometry>
        </mxCell>
        <mxCell id="CThTGi6md4LhZxkkEZVT-32" value="&amp;lt;&amp;lt;extend&amp;gt;&amp;gt;" style="html=1;verticalAlign=bottom;labelBackgroundColor=none;endArrow=open;endFill=0;dashed=1;rounded=0;entryX=0;entryY=0.5;entryDx=0;entryDy=0;" parent="1" target="CThTGi6md4LhZxkkEZVT-30" edge="1">
          <mxGeometry x="-0.4135" y="-1" width="160" relative="1" as="geometry">
            <mxPoint x="660" y="450" as="sourcePoint" />
            <mxPoint x="820" y="450" as="targetPoint" />
            <mxPoint as="offset" />
          </mxGeometry>
        </mxCell>
        <mxCell id="CThTGi6md4LhZxkkEZVT-33" value="&amp;lt;&amp;lt;include&amp;gt;&amp;gt;" style="html=1;verticalAlign=bottom;labelBackgroundColor=none;endArrow=open;endFill=0;dashed=1;rounded=0;entryX=1;entryY=0.5;entryDx=0;entryDy=0;exitX=0;exitY=0.396;exitDx=0;exitDy=0;exitPerimeter=0;" parent="1" target="CThTGi6md4LhZxkkEZVT-16" edge="1" source="CThTGi6md4LhZxkkEZVT-30">
          <mxGeometry width="160" relative="1" as="geometry">
            <mxPoint x="967" y="350" as="sourcePoint" />
            <mxPoint x="1127" y="350" as="targetPoint" />
          </mxGeometry>
        </mxCell>
        <mxCell id="CThTGi6md4LhZxkkEZVT-35" value="&amp;lt;&amp;lt;extend&amp;gt;&amp;gt;" style="html=1;verticalAlign=bottom;labelBackgroundColor=none;endArrow=open;endFill=0;dashed=1;rounded=0;entryX=0.5;entryY=0;entryDx=0;entryDy=0;exitX=0;exitY=1;exitDx=0;exitDy=0;" parent="1" source="CThTGi6md4LhZxkkEZVT-16" edge="1">
          <mxGeometry width="160" relative="1" as="geometry">
            <mxPoint x="550" y="360" as="sourcePoint" />
            <mxPoint x="420" y="440" as="targetPoint" />
          </mxGeometry>
        </mxCell>
        <mxCell id="WqREQNUt2MK07TBk3c6t-4" value="выдача&lt;br&gt;талона&lt;br&gt;" style="ellipse;whiteSpace=wrap;html=1;" parent="1" vertex="1">
          <mxGeometry x="930" y="70" width="140" height="70" as="geometry" />
        </mxCell>
        <mxCell id="WqREQNUt2MK07TBk3c6t-6" value="" style="endArrow=classic;html=1;rounded=0;" parent="1" target="WqREQNUt2MK07TBk3c6t-4" edge="1">
          <mxGeometry width="50" height="50" relative="1" as="geometry">
            <mxPoint x="1150" y="220" as="sourcePoint" />
            <mxPoint x="1200" y="170" as="targetPoint" />
          </mxGeometry>
        </mxCell>
        <mxCell id="RhZ5IDxnBl-5z2rLrbHi-1" value="выписка" style="ellipse;whiteSpace=wrap;html=1;" vertex="1" parent="1">
          <mxGeometry x="340" y="440" width="140" height="70" as="geometry" />
        </mxCell>
      </root>
    </mxGraphModel>
  </diagram>
</mxfile>
